<svg xmlns="http://www.w3.org/2000/svg" viewBox="0 0 96 96" role="img" aria-labelledby="title desc">
  <title id="title">Mōri Motonari</title>
  <desc id="desc">Distinct blurred archival Zoid 25 session sigil inspired by Mōri Motonari.</desc>
  <defs>
    <linearGradient id="wash" x1="0" y1="0" x2="1" y2="1">
      <stop offset="0" stop-color="#efe6d1"/>
      <stop offset="0.52" stop-color="#f8f4ea"/>
      <stop offset="1" stop-color="#111111" stop-opacity="0.44"/>
    </linearGradient>
    <radialGradient id="halo" cx="45%" cy="47%" r="72%">
      <stop offset="0" stop-color="#ffffff" stop-opacity="0.78"/>
      <stop offset="0.48" stop-color="#efe6d1" stop-opacity="0.5"/>
      <stop offset="1" stop-color="#16233f" stop-opacity="0.22"/>
    </radialGradient>
    <filter id="grain" x="-20%" y="-20%" width="140%" height="140%">
      <feTurbulence type="fractalNoise" baseFrequency="0.49" numOctaves="2" seed="12"/>
      <feColorMatrix type="saturate" values="0"/>
      <feComponentTransfer><feFuncA type="table" tableValues="0 .17"/></feComponentTransfer>
    </filter>
  </defs>
  <path d="M0 0h96v96H0z" fill="url(#wash)"/>
  <path d="M0 0h96v96H0z" fill="url(#halo)" opacity="0.82"/>
  <g opacity="0.45" stroke="#b4453f" stroke-width="1.95" fill="none">
    <path d="M-8 14C20 78 38 29 104 59"/>
    <path d="M-10 59C22 56 56 71 108 41"/>
  </g>
  <g transform="translate(48 48) rotate(-2) translate(-48 -48)">
    <g fill="#16233f" opacity="0.88">
      
      <ellipse cx="49.2" cy="49.3" rx="15" ry="21"/>
      <path d="M14 96l20-31 14 19 14-19 20 31z"/>
    </g>
    <g fill="#efe6d1" opacity="0.34">
      <ellipse cx="44.4" cy="46.8" rx="3.5" ry="5.9"/>
      <path d="M50.7 51.4c5 6 3 11-5 13" fill="none" stroke="#efe6d1" stroke-width="2" stroke-linecap="round"/>
    </g>
  </g>
  <g transform="translate(0 0) rotate(3 48 26)" fill="#111111" opacity="0.43">
    <path d="M48 12l11 19H37z"/>
  </g>
  <g stroke="#16233f" stroke-opacity="0.22" stroke-width="1">
    <path d="M9 10h78M9 86h78M10 9v78M86 9v78"/>
    <path d="M18 18h60v60H18z" fill="none" opacity="0.45"/>
  </g>
  <path d="M0 0h96v96H0z" filter="url(#grain)" opacity="0.75"/>
</svg>
