<svg xmlns="http://www.w3.org/2000/svg" viewBox="0 0 96 96" role="img" aria-labelledby="title desc">
  <title id="title">Saigō Takamori</title>
  <desc id="desc">Distinct blurred archival Zoid 25 session sigil inspired by Saigō Takamori.</desc>
  <defs>
    <linearGradient id="wash" x1="0" y1="0" x2="1" y2="1">
      <stop offset="0" stop-color="#e8dfec"/>
      <stop offset="0.52" stop-color="#f8f4ea"/>
      <stop offset="1" stop-color="#5c4a8b" stop-opacity="0.44"/>
    </linearGradient>
    <radialGradient id="halo" cx="52%" cy="28%" r="72%">
      <stop offset="0" stop-color="#ffffff" stop-opacity="0.78"/>
      <stop offset="0.48" stop-color="#e8dfec" stop-opacity="0.5"/>
      <stop offset="1" stop-color="#6c3434" stop-opacity="0.22"/>
    </radialGradient>
    <filter id="grain" x="-20%" y="-20%" width="140%" height="140%">
      <feTurbulence type="fractalNoise" baseFrequency="0.39" numOctaves="2" seed="19"/>
      <feColorMatrix type="saturate" values="0"/>
      <feComponentTransfer><feFuncA type="table" tableValues="0 .17"/></feComponentTransfer>
    </filter>
  </defs>
  <path d="M0 0h96v96H0z" fill="url(#wash)"/>
  <path d="M0 0h96v96H0z" fill="url(#halo)" opacity="0.82"/>
  <g opacity="0.45" stroke="#5f3333" stroke-width="1.7" fill="none">
    <path d="M-8 21C20 73 38 36 104 66"/>
    <path d="M-10 70C22 63 56 64 108 48"/>
  </g>
  <g transform="translate(48 48) rotate(-9) translate(-48 -48)">
    <g fill="#6c3434" opacity="0.88">
      <path d="M23 37c10-17 40-17 50 0-17 7-33 7-50 0z"/>
      <ellipse cx="49.2" cy="43.8" rx="19" ry="23"/>
      <path d="M16 96c7-22 16-34 32-34s25 12 32 34H58L48 76 38 96z"/>
    </g>
    <g fill="#e8dfec" opacity="0.34">
      <ellipse cx="43.1" cy="41.0" rx="3.5" ry="6.4"/>
      <path d="M51.1 46.1c5 6 3 11-5 13" fill="none" stroke="#e8dfec" stroke-width="2" stroke-linecap="round"/>
    </g>
  </g>
  <g transform="translate(0 0) rotate(4 48 26)" fill="#5c4a8b" opacity="0.59">
    <path d="M31 26c8-11 26-11 34 0-7 13-27 13-34 0z"/>
  </g>
  <g stroke="#6c3434" stroke-opacity="0.22" stroke-width="1">
    <path d="M9 10h78M9 86h78M10 9v78M86 9v78"/>
    <path d="M18 18h60v60H18z" fill="none" opacity="0.45"/>
  </g>
  <path d="M0 0h96v96H0z" filter="url(#grain)" opacity="0.75"/>
</svg>
