<svg xmlns="http://www.w3.org/2000/svg" viewBox="0 0 96 96" role="img" aria-labelledby="title desc">
  <title id="title">Murasaki Shikibu</title>
  <desc id="desc">Distinct blurred archival Zoid 25 session sigil inspired by Murasaki Shikibu.</desc>
  <defs>
    <linearGradient id="wash" x1="0" y1="0" x2="1" y2="1">
      <stop offset="0" stop-color="#e8dfec"/>
      <stop offset="0.52" stop-color="#f8f4ea"/>
      <stop offset="1" stop-color="#936f2e" stop-opacity="0.44"/>
    </linearGradient>
    <radialGradient id="halo" cx="68%" cy="60%" r="72%">
      <stop offset="0" stop-color="#ffffff" stop-opacity="0.78"/>
      <stop offset="0.48" stop-color="#e8dfec" stop-opacity="0.5"/>
      <stop offset="1" stop-color="#294984" stop-opacity="0.22"/>
    </radialGradient>
    <filter id="grain" x="-20%" y="-20%" width="140%" height="140%">
      <feTurbulence type="fractalNoise" baseFrequency="0.38" numOctaves="2" seed="35"/>
      <feColorMatrix type="saturate" values="0"/>
      <feComponentTransfer><feFuncA type="table" tableValues="0 .17"/></feComponentTransfer>
    </filter>
  </defs>
  <path d="M0 0h96v96H0z" fill="url(#wash)"/>
  <path d="M0 0h96v96H0z" fill="url(#halo)" opacity="0.82"/>
  <g opacity="0.45" stroke="#c77d2f" stroke-width="1.7" fill="none">
    <path d="M-8 15C20 65 38 26 104 60"/>
    <path d="M-10 54C22 60 56 73 108 43"/>
  </g>
  <g transform="translate(48 48) rotate(-7) translate(-48 -48)">
    <g fill="#294984" opacity="0.88">
      <path d="M29 39c2-17 11-27 19-27s17 10 19 27z"/><path d="M19 39h58v6H19z"/>
      <ellipse cx="51.6" cy="48.2" rx="21" ry="19"/>
      <path d="M16 96c7-22 16-34 32-34s25 12 32 34H58L48 76 38 96z"/>
    </g>
    <g fill="#e8dfec" opacity="0.34">
      <ellipse cx="44.9" cy="45.9" rx="3.8" ry="5.3"/>
      <path d="M53.7 50.1c5 6 3 11-5 13" fill="none" stroke="#e8dfec" stroke-width="2" stroke-linecap="round"/>
    </g>
  </g>
  <g transform="translate(0 0) rotate(-8 48 26)" fill="#936f2e" opacity="0.67">
    <path d="M48 13c8 8 8 16 0 24-8-8-8-16 0-24z"/>
  </g>
  <g stroke="#294984" stroke-opacity="0.22" stroke-width="1">
    <path d="M9 10h78M9 86h78M10 9v78M86 9v78"/>
    <path d="M18 18h60v60H18z" fill="none" opacity="0.45"/>
  </g>
  <path d="M0 0h96v96H0z" filter="url(#grain)" opacity="0.75"/>
</svg>
