<svg xmlns="http://www.w3.org/2000/svg" viewBox="0 0 96 96" role="img" aria-labelledby="title desc">
  <title id="title">Nene</title>
  <desc id="desc">Distinct blurred archival Zoid 25 session sigil inspired by Nene.</desc>
  <defs>
    <linearGradient id="wash" x1="0" y1="0" x2="1" y2="1">
      <stop offset="0" stop-color="#e8dfec"/>
      <stop offset="0.52" stop-color="#f8f4ea"/>
      <stop offset="1" stop-color="#2f6f73" stop-opacity="0.44"/>
    </linearGradient>
    <radialGradient id="halo" cx="41%" cy="52%" r="72%">
      <stop offset="0" stop-color="#ffffff" stop-opacity="0.78"/>
      <stop offset="0.48" stop-color="#e8dfec" stop-opacity="0.5"/>
      <stop offset="1" stop-color="#1d3557" stop-opacity="0.22"/>
    </radialGradient>
    <filter id="grain" x="-20%" y="-20%" width="140%" height="140%">
      <feTurbulence type="fractalNoise" baseFrequency="0.46" numOctaves="2" seed="43"/>
      <feColorMatrix type="saturate" values="0"/>
      <feComponentTransfer><feFuncA type="table" tableValues="0 .17"/></feComponentTransfer>
    </filter>
  </defs>
  <path d="M0 0h96v96H0z" fill="url(#wash)"/>
  <path d="M0 0h96v96H0z" fill="url(#halo)" opacity="0.82"/>
  <g opacity="0.45" stroke="#111111" stroke-width="1.7" fill="none">
    <path d="M-8 23C20 73 38 34 104 68"/>
    <path d="M-10 64C22 49 56 65 108 30"/>
  </g>
  <g transform="translate(48 48) rotate(3) translate(-48 -48)">
    <g fill="#1d3557" opacity="0.88">
      <path d="M23 37c10-17 40-17 50 0-17 7-33 7-50 0z"/>
      <ellipse cx="44.4" cy="43.8" rx="17" ry="23"/>
      <path d="M16 96c7-22 16-34 32-34s25 12 32 34H58L48 76 38 96z"/>
    </g>
    <g fill="#e8dfec" opacity="0.34">
      <ellipse cx="39.0" cy="41.0" rx="3.5" ry="6.4"/>
      <path d="M46.1 46.1c5 6 3 11-5 13" fill="none" stroke="#e8dfec" stroke-width="2" stroke-linecap="round"/>
    </g>
  </g>
  <g transform="translate(0 0) rotate(-4 48 26)" fill="#2f6f73" opacity="0.51">
    <path d="M48 13l13 9-5 15H40l-5-15z"/>
  </g>
  <g stroke="#1d3557" stroke-opacity="0.22" stroke-width="1">
    <path d="M9 10h78M9 86h78M10 9v78M86 9v78"/>
    <path d="M18 18h60v60H18z" fill="none" opacity="0.45"/>
  </g>
  <path d="M0 0h96v96H0z" filter="url(#grain)" opacity="0.75"/>
</svg>
