<svg xmlns="http://www.w3.org/2000/svg" viewBox="0 0 96 96" role="img" aria-labelledby="title desc">
  <title id="title">Kuroda Kanbei</title>
  <desc id="desc">Distinct blurred archival Zoid 25 session sigil inspired by Kuroda Kanbei.</desc>
  <defs>
    <linearGradient id="wash" x1="0" y1="0" x2="1" y2="1">
      <stop offset="0" stop-color="#f4eadc"/>
      <stop offset="0.52" stop-color="#f8f4ea"/>
      <stop offset="1" stop-color="#2f6f73" stop-opacity="0.44"/>
    </linearGradient>
    <radialGradient id="halo" cx="51%" cy="66%" r="72%">
      <stop offset="0" stop-color="#ffffff" stop-opacity="0.78"/>
      <stop offset="0.48" stop-color="#f4eadc" stop-opacity="0.5"/>
      <stop offset="1" stop-color="#1d3557" stop-opacity="0.22"/>
    </radialGradient>
    <filter id="grain" x="-20%" y="-20%" width="140%" height="140%">
      <feTurbulence type="fractalNoise" baseFrequency="0.39" numOctaves="2" seed="53"/>
      <feColorMatrix type="saturate" values="0"/>
      <feComponentTransfer><feFuncA type="table" tableValues="0 .17"/></feComponentTransfer>
    </filter>
  </defs>
  <path d="M0 0h96v96H0z" fill="url(#wash)"/>
  <path d="M0 0h96v96H0z" fill="url(#halo)" opacity="0.82"/>
  <g opacity="0.45" stroke="#111111" stroke-width="1.2" fill="none">
    <path d="M-8 22C20 59 38 18 104 56"/>
    <path d="M-10 54C22 59 56 80 108 40"/>
  </g>
  <g transform="translate(48 48) rotate(-7) translate(-48 -48)">
    <g fill="#1d3557" opacity="0.88">
      <path d="M29 39c2-17 11-27 19-27s17 10 19 27z"/><path d="M19 39h58v6H19z"/>
      <ellipse cx="48.0" cy="48.2" rx="17" ry="17"/>
      <path d="M18 96c4-24 15-36 30-36s26 12 30 36z"/>
    </g>
    <g fill="#f4eadc" opacity="0.34">
      <ellipse cx="42.6" cy="46.2" rx="3.5" ry="5.0"/>
      <path d="M49.7 49.9c5 6 3 11-5 13" fill="none" stroke="#f4eadc" stroke-width="2" stroke-linecap="round"/>
    </g>
  </g>
  <g transform="translate(0 0) rotate(6 48 26)" fill="#2f6f73" opacity="0.51">
    <path d="M48 13l13 9-5 15H40l-5-15z"/>
  </g>
  <g stroke="#1d3557" stroke-opacity="0.22" stroke-width="1">
    <path d="M9 10h78M9 86h78M10 9v78M86 9v78"/>
    <path d="M18 18h60v60H18z" fill="none" opacity="0.45"/>
  </g>
  <path d="M0 0h96v96H0z" filter="url(#grain)" opacity="0.75"/>
</svg>
