<svg xmlns="http://www.w3.org/2000/svg" viewBox="0 0 96 96" role="img" aria-labelledby="title desc">
  <title id="title">Ashikaga Yoshimitsu</title>
  <desc id="desc">Distinct blurred archival Zoid 25 session sigil inspired by Ashikaga Yoshimitsu.</desc>
  <defs>
    <linearGradient id="wash" x1="0" y1="0" x2="1" y2="1">
      <stop offset="0" stop-color="#e7edfa"/>
      <stop offset="0.52" stop-color="#f8f4ea"/>
      <stop offset="1" stop-color="#2f6f73" stop-opacity="0.44"/>
    </linearGradient>
    <radialGradient id="halo" cx="61%" cy="32%" r="72%">
      <stop offset="0" stop-color="#ffffff" stop-opacity="0.78"/>
      <stop offset="0.48" stop-color="#e7edfa" stop-opacity="0.5"/>
      <stop offset="1" stop-color="#1d3557" stop-opacity="0.22"/>
    </radialGradient>
    <filter id="grain" x="-20%" y="-20%" width="140%" height="140%">
      <feTurbulence type="fractalNoise" baseFrequency="0.49" numOctaves="2" seed="63"/>
      <feColorMatrix type="saturate" values="0"/>
      <feComponentTransfer><feFuncA type="table" tableValues="0 .17"/></feComponentTransfer>
    </filter>
  </defs>
  <path d="M0 0h96v96H0z" fill="url(#wash)"/>
  <path d="M0 0h96v96H0z" fill="url(#halo)" opacity="0.82"/>
  <g opacity="0.45" stroke="#111111" stroke-width="1.7" fill="none">
    <path d="M-8 21C20 69 38 28 104 66"/>
    <path d="M-10 62C22 50 56 70 108 50"/>
  </g>
  <g transform="translate(48 48) rotate(1) translate(-48 -48)">
    <g fill="#1d3557" opacity="0.88">
      <path d="M25 40c5-20 16-29 23-29s18 9 23 29z"/>
      <ellipse cx="51.6" cy="46.0" rx="17" ry="21"/>
      <path d="M16 96c7-22 16-34 32-34s25 12 32 34H58L48 76 38 96z"/>
    </g>
    <g fill="#e7edfa" opacity="0.34">
      <ellipse cx="46.2" cy="43.5" rx="3.5" ry="5.9"/>
      <path d="M53.3 48.1c5 6 3 11-5 13" fill="none" stroke="#e7edfa" stroke-width="2" stroke-linecap="round"/>
    </g>
  </g>
  <g transform="translate(0 0) rotate(-4 48 26)" fill="#2f6f73" opacity="0.51">
    <path d="M48 13l13 9-5 15H40l-5-15z"/>
  </g>
  <g stroke="#1d3557" stroke-opacity="0.22" stroke-width="1">
    <path d="M9 10h78M9 86h78M10 9v78M86 9v78"/>
    <path d="M18 18h60v60H18z" fill="none" opacity="0.45"/>
  </g>
  <path d="M0 0h96v96H0z" filter="url(#grain)" opacity="0.75"/>
</svg>
