<svg xmlns="http://www.w3.org/2000/svg" viewBox="0 0 96 96" role="img" aria-labelledby="title desc">
  <title id="title">Nichiren</title>
  <desc id="desc">Distinct blurred archival Zoid 25 session sigil inspired by Nichiren.</desc>
  <defs>
    <linearGradient id="wash" x1="0" y1="0" x2="1" y2="1">
      <stop offset="0" stop-color="#e7edfa"/>
      <stop offset="0.52" stop-color="#f8f4ea"/>
      <stop offset="1" stop-color="#b4453f" stop-opacity="0.44"/>
    </linearGradient>
    <radialGradient id="halo" cx="34%" cy="24%" r="72%">
      <stop offset="0" stop-color="#ffffff" stop-opacity="0.78"/>
      <stop offset="0.48" stop-color="#e7edfa" stop-opacity="0.5"/>
      <stop offset="1" stop-color="#101520" stop-opacity="0.22"/>
    </radialGradient>
    <filter id="grain" x="-20%" y="-20%" width="140%" height="140%">
      <feTurbulence type="fractalNoise" baseFrequency="0.40" numOctaves="2" seed="71"/>
      <feColorMatrix type="saturate" values="0"/>
      <feComponentTransfer><feFuncA type="table" tableValues="0 .17"/></feComponentTransfer>
    </filter>
  </defs>
  <path d="M0 0h96v96H0z" fill="url(#wash)"/>
  <path d="M0 0h96v96H0z" fill="url(#halo)" opacity="0.82"/>
  <g opacity="0.45" stroke="#6f7f38" stroke-width="1.7" fill="none">
    <path d="M-8 18C20 77 38 36 104 52"/>
    <path d="M-10 54C22 58 56 62 108 37"/>
  </g>
  <g transform="translate(48 48) rotate(-7) translate(-48 -48)">
    <g fill="#101520" opacity="0.88">
      <path d="M29 39c2-17 11-27 19-27s17 10 19 27z"/><path d="M19 39h58v6H19z"/>
      <ellipse cx="44.4" cy="48.2" rx="13" ry="25"/>
      <path d="M16 96c7-22 16-34 32-34s25 12 32 34H58L48 76 38 96z"/>
    </g>
    <g fill="#e7edfa" opacity="0.34">
      <ellipse cx="40.2" cy="45.2" rx="3.5" ry="7.0"/>
      <path d="M45.7 50.7c5 6 3 11-5 13" fill="none" stroke="#e7edfa" stroke-width="2" stroke-linecap="round"/>
    </g>
  </g>
  <g transform="translate(0 0) rotate(0 48 26)" fill="#b4453f" opacity="0.35">
    <circle cx="48" cy="24" r="10"/>
  </g>
  <g stroke="#101520" stroke-opacity="0.22" stroke-width="1">
    <path d="M9 10h78M9 86h78M10 9v78M86 9v78"/>
    <path d="M18 18h60v60H18z" fill="none" opacity="0.45"/>
  </g>
  <path d="M0 0h96v96H0z" filter="url(#grain)" opacity="0.75"/>
</svg>
