<svg xmlns="http://www.w3.org/2000/svg" viewBox="0 0 96 96" role="img" aria-labelledby="title desc">
  <title id="title">Honami Kōetsu</title>
  <desc id="desc">Distinct blurred archival Zoid 25 session sigil inspired by Honami Kōetsu.</desc>
  <defs>
    <linearGradient id="wash" x1="0" y1="0" x2="1" y2="1">
      <stop offset="0" stop-color="#f5efe2"/>
      <stop offset="0.52" stop-color="#f8f4ea"/>
      <stop offset="1" stop-color="#3558a2" stop-opacity="0.44"/>
    </linearGradient>
    <radialGradient id="halo" cx="49%" cy="45%" r="72%">
      <stop offset="0" stop-color="#ffffff" stop-opacity="0.78"/>
      <stop offset="0.48" stop-color="#f5efe2" stop-opacity="0.5"/>
      <stop offset="1" stop-color="#3558a2" stop-opacity="0.22"/>
    </radialGradient>
    <filter id="grain" x="-20%" y="-20%" width="140%" height="140%">
      <feTurbulence type="fractalNoise" baseFrequency="0.38" numOctaves="2" seed="86"/>
      <feColorMatrix type="saturate" values="0"/>
      <feComponentTransfer><feFuncA type="table" tableValues="0 .17"/></feComponentTransfer>
    </filter>
  </defs>
  <path d="M0 0h96v96H0z" fill="url(#wash)"/>
  <path d="M0 0h96v96H0z" fill="url(#halo)" opacity="0.82"/>
  <g opacity="0.45" stroke="#936f2e" stroke-width="1.45" fill="none">
    <path d="M-8 22C20 56 38 25 104 67"/>
    <path d="M-10 57C22 54 56 72 108 31"/>
  </g>
  <g transform="translate(48 48) rotate(-4) translate(-48 -48)">
    <g fill="#3558a2" opacity="0.88">
      <path d="M31 29h34l8 12H23z"/><path d="M37 17h22l6 14H31z"/>
      <ellipse cx="45.6" cy="44.9" rx="13" ry="21"/>
      <path d="M20 96l17-35 11 16 11-16 17 35z"/>
    </g>
    <g fill="#f5efe2" opacity="0.34">
      <ellipse cx="41.4" cy="42.4" rx="3.5" ry="5.9"/>
      <path d="M46.9 47.0c5 6 3 11-5 13" fill="none" stroke="#f5efe2" stroke-width="2" stroke-linecap="round"/>
    </g>
  </g>
  <g transform="translate(0 0) rotate(5 48 26)" fill="#3558a2" opacity="0.35">
    <path d="M34 22c10-10 18-10 28 0-10 6-18 6-28 0z"/>
  </g>
  <g stroke="#3558a2" stroke-opacity="0.22" stroke-width="1">
    <path d="M9 10h78M9 86h78M10 9v78M86 9v78"/>
    <path d="M18 18h60v60H18z" fill="none" opacity="0.45"/>
  </g>
  <path d="M0 0h96v96H0z" filter="url(#grain)" opacity="0.75"/>
</svg>
